HIERARCHY
ROOT root
{
	OFFSET 0.000000 0.000000 0.000000
	CHANNELS 6 Xposition Yposition Zposition Zrotation Yrotation Xrotation
	JOINT lhip
	{
		OFFSET 0.058581 -0.082280 -0.017664
		CHANNELS 3 Zrotation Yrotation Xrotation
		JOINT lknee
		{
			OFFSET 0.043451 -0.386469 0.008037
			CHANNELS 3 Zrotation Yrotation Xrotation
			JOINT lankle
			{
				OFFSET -0.014790 -0.426874 -0.037428
				CHANNELS 3 Zrotation Yrotation Xrotation
				JOINT ltoe
				{
					OFFSET 0.041054 -0.060286 0.122042
					CHANNELS 3 Zrotation Yrotation Xrotation
					End Site
					{
						OFFSET 0.000000 0.000000 0.000000
					}
				}
			}
		}
	}
	JOINT rhip
	{
		OFFSET -0.060310 -0.090513 -0.013543
		CHANNELS 3 Zrotation Yrotation Xrotation
		JOINT rknee
		{
			OFFSET -0.043257 -0.383688 -0.004843
			CHANNELS 3 Zrotation Yrotation Xrotation
			JOINT rankle
			{
				OFFSET 0.019056 -0.420046 -0.034562
				CHANNELS 3 Zrotation Yrotation Xrotation
				JOINT rtoe
				{
					OFFSET -0.034840 -0.062106 0.130323
					CHANNELS 3 Zrotation Yrotation Xrotation
					End Site
					{
						OFFSET 0.000000 0.000000 0.000000
					}
				}
			}
		}
	}
	JOINT lowerback
	{
		OFFSET 0.004439 0.124404 -0.038385
		CHANNELS 3 Zrotation Yrotation Xrotation
		JOINT upperback
		{
			OFFSET 0.004488 0.137956 0.026820
			CHANNELS 3 Zrotation Yrotation Xrotation
			JOINT chest
			{
				OFFSET -0.002265 0.056032 0.002855
				CHANNELS 3 Zrotation Yrotation Xrotation
				JOINT lowerneck
				{
					OFFSET -0.013390 0.211636 -0.033468
					CHANNELS 3 Zrotation Yrotation Xrotation
					JOINT upperneck
					{
						OFFSET 0.010113 0.088937 0.050410
						CHANNELS 3 Zrotation Yrotation Xrotation
						End Site
						{
							OFFSET 0.000000 0.000000 0.000000
						}
					}
				}
				JOINT lclavicle
				{
					OFFSET 0.071702 0.114000 -0.018898
					CHANNELS 3 Zrotation Yrotation Xrotation
					JOINT lshoulder
					{
						OFFSET 0.122921 0.045205 -0.019046
						CHANNELS 3 Zrotation Yrotation Xrotation
						JOINT lelbow
						{
							OFFSET 0.255332 -0.015649 -0.022946
							CHANNELS 3 Zrotation Yrotation Xrotation
							JOINT lwrist
							{
								OFFSET 0.265709 0.012698 -0.007375
								CHANNELS 3 Zrotation Yrotation Xrotation
								End Site
								{
									OFFSET 0.000000 0.000000 0.000000
								}
							}
						}
					}
				}
				JOINT rclavicle
				{
					OFFSET -0.082954 0.112472 -0.023707
					CHANNELS 3 Zrotation Yrotation Xrotation
					JOINT rshoulder
					{
						OFFSET -0.113228 0.046853 -0.008472
						CHANNELS 3 Zrotation Yrotation Xrotation
						JOINT relbow
						{
							OFFSET -0.260127 -0.014369 -0.031269
							CHANNELS 3 Zrotation Yrotation Xrotation
							JOINT rwrist
							{
								OFFSET -0.269108 0.006794 -0.006027
								CHANNELS 3 Zrotation Yrotation Xrotation
								End Site
								{
									OFFSET 0.000000 0.000000 0.000000
								}
							}
						}
					}
				}
			}
		}
	}
}
MOTION
Frames: 6
Frame Time: 0.033333
1.156971 1.168680 1.133485 -86.727318 2.492126 85.984731 0.232277 0.427270 7.786680 -3.508842 -15.402506 1.943790 3.678961 6.701560 -15.018048 0.000000 -0.000000 0.000000 4.004939 -1.404625 6.207587 3.767440 3.329338 5.321822 1.816308 -3.607180 -11.716065 0.000000 -0.000000 0.000000 -1.906380 0.721042 4.755600 2.434882 -3.473272 3.691313 1.125100 -2.754969 5.463597 4.824307 -1.214964 6.149311 3.227448 -4.230906 6.315168 -25.391650 7.453404 3.542740 -60.974830 -5.777680 7.038076 10.119361 -27.318546 4.082396 -3.403326 -0.742853 -9.751154 23.455498 -6.521946 0.243745 62.078939 0.042063 9.632933 -16.278427 27.856012 -5.061564 7.010247 -0.429229 -10.701436 
1.156663 1.168536 1.133447 -86.732431 2.502294 86.081014 0.257219 0.375656 7.675673 -3.587670 -15.385677 2.032344 3.680008 6.720081 -15.040730 0.000000 -0.000000 0.000000 4.018704 -1.272891 6.100238 3.764131 3.346745 5.374324 1.888525 -3.650230 -11.694955 0.000000 -0.000000 0.000000 -1.929074 0.717235 4.633193 2.405242 -3.433766 3.626155 1.132893 -2.763111 5.622272 5.004686 -1.050103 5.776962 3.242289 -4.103496 6.352358 -25.335161 7.509826 3.424180 -61.050342 -5.848197 7.155554 10.217938 -27.278952 4.228942 -3.348701 -0.720052 -9.825130 23.405669 -6.517233 0.267704 62.156042 0.072764 9.773877 -16.344442 27.889353 -5.063203 6.925822 -0.418825 -10.901071 
1.156252 1.168509 1.133298 -86.823191 2.544607 86.167589 0.290447 0.402940 7.640483 -3.455626 -15.374604 1.861772 3.722031 6.748595 -14.943896 0.000000 -0.000000 0.000000 4.077318 -1.215856 6.057581 3.792665 3.329527 5.292344 1.913430 -3.761090 -11.868538 0.000000 -0.000000 0.000000 -1.895869 0.730646 4.583809 2.403709 -3.410119 3.624019 1.150120 -2.746930 5.567794 5.212914 -1.167280 5.345256 3.199627 -4.223662 6.403876 -25.382453 7.525909 3.423664 -60.949904 -5.835307 7.145473 10.136987 -27.300119 4.274811 -3.367588 -0.716441 -9.890655 23.321421 -6.503765 0.185940 62.252178 -0.027887 9.792868 -16.435242 27.888485 -5.083538 6.941086 -0.442435 -10.992598 
1.155862 1.168651 1.133308 -86.796740 2.515860 86.164571 0.346204 0.417589 7.620417 -3.656145 -15.350823 2.043268 3.675674 6.664817 -14.933054 0.000000 -0.000000 0.000000 4.039230 -1.245162 6.154236 3.784601 3.482386 5.222927 1.792274 -3.716276 -11.583792 0.000000 -0.000000 0.000000 -2.012117 0.781751 4.603171 2.439470 -3.494644 3.716671 1.138735 -2.777674 5.526156 5.049780 -1.092184 5.724686 3.317951 -4.194363 6.335040 -25.404733 7.368579 3.669115 -60.840738 -5.869132 7.107322 10.196396 -27.372430 4.176140 -3.257776 -0.720816 -10.139613 23.463203 -6.336756 0.382861 62.107233 -0.009015 9.767873 -16.571888 28.010893 -5.232597 6.885744 -0.511742 -11.144530 
1.155382 1.168645 1.133208 -86.831336 2.469408 86.094237 0.311918 0.528711 7.695296 -3.659291 -15.404236 2.058788 3.759520 6.687623 -15.002718 0.000000 -0.000000 0.000000 4.024857 -1.316984 6.084001 3.761599 3.347904 5.538445 1.752136 -3.613040 -11.976956 0.000000 -0.000000 0.000000 -2.127723 0.836327 4.748070 2.479456 -3.490639 3.696953 1.160782 -2.821361 5.359696 4.988193 -2.183457 6.874599 3.335660 -4.843978 6.150219 -25.308125 7.409665 3.976019 -60.921778 -5.910307 7.011133 10.169210 -27.472966 4.197565 -3.424279 -0.423703 -10.524056 23.314763 -6.322340 0.648705 62.230754 0.009619 9.546027 -16.498183 28.191353 -5.101009 7.004093 -0.593764 -11.141852 
1.155419 1.168666 1.133389 -86.715903 2.496897 86.206592 0.358283 0.460578 7.503866 -3.669553 -15.369473 2.166287 3.753492 6.673596 -14.856871 0.000000 -0.000000 0.000000 4.058265 -1.340815 5.966231 3.804853 3.379624 5.694593 1.727806 -3.662808 -11.533571 0.000000 -0.000000 0.000000 -2.096887 0.803041 4.782360 2.440486 -3.516653 3.621731 1.136212 -2.847515 5.423249 5.048258 -1.848511 6.583713 3.565562 -4.635841 6.196735 -25.275303 7.433009 3.901099 -60.984466 -5.893721 7.016861 10.307068 -27.457314 4.202171 -3.358168 -0.516533 -10.296055 23.380817 -6.361057 0.566442 62.218096 0.049861 9.581368 -16.474949 28.182042 -5.155072 7.025721 -0.551086 -11.232127 
